<svg height="511pt" viewBox="1 -12 511.999 511" width="511pt" xmlns="http://www.w3.org/2000/svg"><path d="m326.566406 480.519531h-129.566406l-46.84375-43.175781c13.644531-39.019531 41.492188-61.066406 41.492188-61.066406h140.269531s27.851562 22.046875 41.492187 61.066406zm0 0" fill="#ff6f7f"/><path d="m173.15625 437.34375c13.640625-39.019531 41.492188-61.066406 41.492188-61.066406h-23s-27.851563 22.046875-41.492188 61.066406zm0 0" fill="#f8485e"/><path d="m295.78125 390.691406c0 18.777344-15.21875 34-34 34-18.777344 0-34-15.222656-34-34 0-18.78125 15.222656-34 34-34 18.78125 0 34 15.21875 34 34zm0 0" fill="#ffbe9c"/><path d="m380.773438 480.519531h-54.207032v-43.175781h46.84375c4.429688 12.660156 7.363282 27.109375 7.363282 43.175781zm0 0" fill="#ffd3bc"/><path d="m197 437.34375v43.175781h-54.207031c0-16.066406 2.933593-30.515625 7.363281-43.175781zm0 0" fill="#ffd3bc"/><path d="m150.15625 437.34375c-4.429688 12.660156-7.363281 27.109375-7.363281 43.175781h23c0-16.066406 2.933593-30.515625 7.363281-43.175781zm0 0" fill="#ffbe9c"/><path d="m28.09375 94.621094c-11.371094 0-20.59375 9.222656-20.59375 20.597656 0 11.371094 9.222656 20.59375 20.59375 20.59375h43.476562l29.84375-41.191406zm0 0" fill="#f4e64c"/><path d="m56.507812 213.273438c0-26.996094 5.183594-53.195313 15.0625-77.460938h380.421876c9.882812 24.265625 15.066406 50.464844 15.066406 77.460938zm0 0" fill="#5c586f"/><path d="m433.046875 166.84375c2.027344-.1875 4.074219-.296875 6.152344-.296875 36.0625 0 65.300781 29.234375 65.300781 65.300781s-29.238281 65.300782-65.300781 65.300782c-6.789063 0-13.332031-1.035157-19.488281-2.957032zm0 0" fill="#3ccadd"/><path d="m76.214844 296.625-27.859375-10.308594 11.796875 16.164063zm0 0" fill="#ff6f7f"/><path d="m90.519531 166.84375c-2.027343-.1875-4.078125-.296875-6.152343-.296875-36.0625 0-65.300782 29.234375-65.300782 65.300781s29.238282 65.300782 65.300782 65.300782c6.789062 0 13.332031-1.035157 19.488281-2.957032zm0 0" fill="#3ccadd"/><path d="m49.066406 231.847656c0-27.808594 17.386719-51.539062 41.875-60.957031l-.421875-4.046875c-2.027343-.191406-4.078125-.296875-6.152343-.296875-36.0625 0-65.300782 29.234375-65.300782 65.300781 0 36.0625 29.238282 65.300782 65.300782 65.300782 5.175781 0 10.207031-.605469 15.03125-1.746094-28.847657-6.765625-50.332032-32.644532-50.332032-63.554688zm0 0" fill="#00a7c3"/><path d="m439.199219 213.273438c0 97.984374-79.433594 177.417968-177.417969 177.417968-97.980469 0-177.414062-79.433594-177.414062-177.417968 0-97.984376 79.433593-177.414063 177.414062-177.414063 97.984375 0 177.417969 79.429687 177.417969 177.414063zm0 0" fill="#ffd3bc"/><path d="m114.367188 213.273438c0-92.929688 71.453124-169.160157 162.414062-176.777344-4.945312-.414063-9.945312-.636719-15-.636719-97.980469 0-177.414062 79.429687-177.414062 177.414063 0 97.984374 79.433593 177.417968 177.414062 177.417968 5.054688 0 10.054688-.222656 15-.636718-90.960938-7.621094-162.414062-83.851563-162.414062-176.78125zm0 0" fill="#ffbe9c"/><path d="m451.996094 135.8125h-380.425782c10.1875-25.027344 25.382813-48.011719 45.058594-67.691406 38.773438-38.773438 90.324219-60.121094 145.152344-60.121094 54.832031 0 106.382812 21.347656 145.152344 60.121094 19.679687 19.679687 34.875 42.664062 45.0625 67.691406zm0 0" fill="#ff6f7f"/><path d="m276.78125 8.539062c-4.964844-.355468-9.96875-.539062-15-.539062-54.828125 0-106.378906 21.351562-145.148438 60.121094-19.679687 19.679687-34.875 42.664062-45.0625 67.691406h30c10.191407-25.027344 25.382813-48.011719 45.0625-67.691406 35.214844-35.214844 80.96875-56.054688 130.148438-59.582032zm0 0" fill="#f8485e"/><path d="m177.476562 262.566406h-25.734374c-4.140626 0-7.5-3.359375-7.5-7.5 0-4.144531 3.359374-7.5 7.5-7.5h25.734374c4.144532 0 7.5 3.355469 7.5 7.5 0 4.140625-3.355468 7.5-7.5 7.5zm0 0" fill="#ffa0ab"/><path d="m371.820312 262.566406h-25.730468c-4.144532 0-7.5-3.359375-7.5-7.5 0-4.144531 3.355468-7.5 7.5-7.5h25.730468c4.144532 0 7.5 3.355469 7.5 7.5 0 4.140625-3.355468 7.5-7.5 7.5zm0 0" fill="#ffa0ab"/><path d="m291.730469 92.539062h-59.894531c-14.640626 0-26.507813 11.867188-26.507813 26.503907v16.769531h112.910156v-16.769531c0-14.636719-11.867187-26.503907-26.507812-26.503907zm0 0" fill="#5c586f"/><path d="m252.097656 335.472656h-37.480468l-15.613282 13.933594 15.613282 13.929688h37.480468c7.691406 0 13.929688-6.238282 13.929688-13.929688 0-7.695312-6.238282-13.933594-13.929688-13.933594zm0 0" fill="#3ccadd"/><path d="m114.09375 335.472656c-20.886719 0-37.878906-16.988281-37.878906-37.875v-.972656c-10.203125-1.273438-19.679688-4.886719-27.859375-10.308594v11.28125c0 36.246094 29.488281 65.738282 65.738281 65.738282h100.523438v-27.863282zm0 0" fill="#ff6f7f"/><path d="m90.207031 326.964844c-8.53125-6.949219-13.992187-17.53125-13.992187-29.367188v-.972656c-10.207032-1.273438-19.679688-4.890625-27.859375-10.308594v11.277344c0 8.5625 1.660156 16.738281 4.652343 24.246094 9.824219 3.433594 20.375 5.308594 31.359376 5.308594 1.949218 0 3.894531-.0625 5.839843-.183594zm0 0" fill="#f8485e"/><path d="m172.113281 227.292969v-18.894531c0-4.140626-3.359375-7.5-7.5-7.5-4.144531 0-7.5 3.359374-7.5 7.5v18.894531c0 4.140625 3.355469 7.5 7.5 7.5 4.140625 0 7.5-3.355469 7.5-7.5zm0 0"/><path d="m366.453125 227.292969v-18.894531c0-4.140626-3.355469-7.5-7.5-7.5-4.140625 0-7.5 3.359374-7.5 7.5v18.894531c0 4.140625 3.359375 7.5 7.5 7.5 4.144531 0 7.5-3.355469 7.5-7.5zm0 0"/><path d="m273.515625 241.371094c-2.847656 3.257812-7.125 5.125-11.734375 5.125-4.605469 0-8.882812-1.867188-11.730469-5.125-2.726562-3.117188-7.464843-3.4375-10.582031-.710938-3.121094 2.726563-3.4375 7.464844-.710938 10.585938 5.695313 6.515625 14.085938 10.25 23.023438 10.25 8.941406 0 17.332031-3.734375 23.027344-10.25 2.726562-3.121094 2.410156-7.859375-.710938-10.585938-3.117187-2.726562-7.855468-2.40625-10.582031.710938zm0 0"/><path d="m28.09375 143.3125h32.65625c-2.515625 7.261719-4.648438 14.691406-6.367188 22.222656-25.222656 11.449219-42.816406 36.855469-42.816406 66.3125 0 23.84375 11.523438 45.042969 29.289063 58.332032v7.417968c0 40.382813 32.855469 73.238282 73.238281 73.238282h50.882812c4.382813 2.695312 8.863282 5.203124 13.429688 7.511718-9.847656 10.039063-25.820312 29.328125-35.332031 56.527344-5.164063 14.757812-7.78125 30.117188-7.78125 45.644531 0 4.144531 3.359375 7.5 7.5 7.5h237.984375c4.140625 0 7.5-3.355469 7.5-7.5 0-15.527343-2.621094-30.886719-7.785156-45.648437-9.515626-27.210938-25.515626-46.515625-35.359376-56.550782 11.816407-5.960937 23.019532-13.195312 33.371094-21.625 3.210938-2.617187 3.691406-7.34375 1.074219-10.554687s-7.339844-3.691406-10.550781-1.074219c-25.328125 20.632813-56.226563 33.484375-88.554688 37.082032-27.445312 3.058593-55.535156-.695313-81.226562-10.851563-.386719-.152344-.769532-.308594-1.15625-.460937h54.007812c11.816406 0 21.429688-9.617188 21.429688-21.433594s-9.613282-21.429688-21.429688-21.429688h-115.671875c-10.359375-11.308594-19.027343-23.816406-25.898437-37.210937-19.140625-37.277344-23.800782-81.5-12.765625-121.949219.003906-.023438.007812-.042969.011719-.066406 2.347656-8.667969 5.421874-17.203125 9.144531-25.433594h309.730469c11.496093 25.414062 16.460937 53.589844 14.664062 81.414062-.007812.125-.019531.253907-.027344.382813-2.578125 37-17.1875 72.214844-41.796875 100.234375-2.730469 3.109375-2.425781 7.851562.6875 10.582031 3.113281 2.734375 7.851563 2.425781 10.585938-.683593 8.773437-9.996094 16.375-20.835938 22.734375-32.304688 5.140625 1.128906 10.394531 1.710938 15.703125 1.710938 40.140625 0 72.800781-32.660157 72.800781-72.804688 0-29.453125-17.597656-54.859375-42.816406-66.3125-2.546875-11.148438-5.980469-22.078125-10.242188-32.546875-10.6875-26.257813-26.402344-49.867187-46.703125-70.167969-40.1875-40.183594-93.621093-62.316406-150.457031-62.316406-37.097656 0-73.535156 9.625-105.378906 27.832031-3.597656 2.054688-4.84375 6.636719-2.789063 10.234375 2.054688 3.59375 6.636719 4.84375 10.234375 2.785156 29.578125-16.914062 63.445313-25.851562 97.933594-25.851562 52.832031 0 102.496094 20.570312 139.851562 57.925781 16.175782 16.171875 29.214844 34.597657 38.863282 54.886719h-114.757813v-9.269531c0-18.75-15.253906-34.003907-34.007812-34.003907h-59.894531c-18.75 0-34.007813 15.253907-34.007813 34.003907v9.269531h-114.75c4.875-10.21875 10.65625-20.054688 17.261719-29.34375 11.027344-15.507812 24.28125-29.417969 39.21875-41.207031 3.25-2.566407 3.808594-7.285157 1.242187-10.535157-2.566406-3.253906-7.285156-3.808593-10.535156-1.242187-15.035156 11.867187-28.503906 25.734375-39.894531 41.136719h-62.277344c-15.488281.003906-28.09375 12.605468-28.09375 28.097656s12.605469 28.09375 28.09375 28.09375zm184.734375-24.269531c0-10.476563 8.527344-19.003907 19.007813-19.003907h59.894531c10.480469 0 19.007812 8.527344 19.007812 19.003907v9.269531h-97.910156zm-141.65625 41.203125c1.585937-5.742188 3.429687-11.398438 5.515625-16.933594h13.890625c-2.125 5.175781-4 10.425781-5.628906 15.738281-4.253907-.042969-8.519531.316407-12.710938 1.027344-.355469.058594-.710937.101563-1.066406.167969zm-44.605469 71.601562c0-24.734375 15.621094-45.878906 37.511719-54.113281 5.417969-2.035156 11.152344-3.246094 16.929687-3.578125-2.054687 9.554688-3.355468 19.289062-3.875 29.179688-1.4375 27.539062 3.351563 55.957031 14.125 81.582031.574219 1.371093 1.164063 2.730469 1.773438 4.085937-2.855469.429688-5.75.644532-8.664062.644532-31.476563 0-57.800782-26.386719-57.800782-57.800782zm169.117188 154.152344c8.078125 3.101562 16.324218 5.613281 24.707031 7.53125 1.46875 21.5625 19.464844 38.660156 41.390625 38.660156 21.929688 0 39.925781-17.097656 41.394531-38.660156 9.277344-2.125 18.394531-4.964844 27.300781-8.535156 6.523438 6.078125 21.535157 21.660156 31.886719 44.847656h-35.796875c-4.140625 0-7.5 3.359375-7.5 7.5v35.675781h-114.566406v-35.675781c0-4.140625-3.359375-7.5-7.5-7.5h-35.796875c10.351563-23.1875 25.363281-38.773438 31.886719-44.847656.421875.171875 2.152344.835937 2.59375 1.003906zm46.507812 11.15625c15.109375 1.585938 30.425782 1.34375 45.472656-.761719-2.617187 11.878907-13.226562 20.796875-25.882812 20.796875-12.652344 0-23.261719-8.917968-25.878906-20.796875 2.085937.292969 4.183594.542969 6.289062.761719zm-86.597656 47.6875h33.902344v28.175781h-38.976563c.585938-9.535156 2.285157-18.96875 5.074219-28.175781zm178.472656 28.175781v-28.175781h33.90625c2.789063 9.207031 4.488282 18.640625 5.074219 28.175781zm-75.539062-123.613281c0 3.542969-2.882813 6.429688-6.429688 6.429688h-29.980468v-12.859376h29.980468c3.546875-.003906 6.429688 2.882813 6.429688 6.429688zm-51.410156-6.433594v12.863282h-93.023438c-31.699219 0-57.566406-25.460938-58.226562-57.003907 4.203124 1.796875 8.609374 3.199219 13.167968 4.179688 2.683594 22.476562 21.867188 39.960937 45.058594 39.960937zm-93.023438-15c-14.324219 0-26.355469-9.964844-29.542969-23.328125 5.230469-.011719 10.410157-.585937 15.476563-1.699219 4.851562 8.738282 10.433594 17.105469 16.710937 25.027344zm382.90625-96.125c0 31.871094-25.929688 57.800782-57.800781 57.800782-2.914063 0-5.808594-.214844-8.667969-.644532 9.003906-19.972656 14.261719-41.085937 15.730469-63.003906 1.160156-17.347656-.042969-34.84375-3.703125-51.84375 5.800781.332031 11.515625 1.539062 16.953125 3.589844 21.878906 8.238281 37.488281 29.378906 37.488281 54.101562zm-50.121094-88.535156c2.085938 5.535156 3.929688 11.191406 5.515625 16.933594-4.34375-.800782-8.78125-1.199219-13.195312-1.199219-.191407 0-.386719 0-.582031.003906-1.628907-5.3125-3.503907-10.5625-5.628907-15.738281zm-418.785156-41.1875h52.167969c-3.644531 5.933594-6.992188 12.046875-10.039063 18.328125-1.25 2.578125-2.460937 5.175781-3.605468 7.804687-.007813.019532-.015626.039063-.023438.058594h-38.5c-7.21875 0-13.09375-5.875-13.09375-13.097656 0-7.21875 5.875-13.09375 13.09375-13.09375zm0 0"/></svg>